<svg xmlns="http://www.w3.org/2000/svg" viewBox="0 0 33 33" enable-background="new 0 0 33 33"><circle fill="#fff" cx="16.5" cy="16.5" r="16.5"/><path fill="#C02026" d="M7 24.8c-1.6 0-3 .3-4.2.8-1.8-2.6-2.8-5.7-2.8-9.1v-.9c.8 2.8 3.4 4.8 6.9 4.8h.8c-.3.5-.5 1.1-.5 1.8 0 1 .6 1.9 1.3 2.6h-1.5zm9.5-24.8c-6.6 0-12.2 3.8-14.9 9.4 1.6-1.6 3.9-2.7 6.3-2.7h9.4l-2.1 1.5h-3c2 .8 3 3.1 3 5.4 0 2-1.1 3.7-2.6 4.9-1.5 1.2-1.8 1.7-1.8 2.7 0 .9 1.6 2.3 2.4 2.9 2.5 1.8 3.3 3.4 3.3 6.1 0 .9-.3 1.8-.7 2.7h.6c9.2.1 16.6-7.3 16.6-16.4s-7.4-16.5-16.5-16.5zm-13.4 13.6c-.4-3.2 1.2-5.6 3.6-5.5 2.4.1 4.7 2.6 5.2 5.8.4 3.2-1.2 5.7-3.6 5.6-2.5-.1-4.7-2.7-5.2-5.9zm11 17.1c0 .8-.1 1.5-.4 2.1-4.1-.7-7.6-2.9-10.1-6 1.2-.7 2.8-1.2 4.4-1.1.8 0 1.6.2 2.3.4 1.9 1.3 3.4 2.1 3.7 3.7.1.2.1.6.1.9zm10.7-18.3v4.1h-2.1v-4.1h-4.1v-2.1h4.1v-4.1h2.1v4.1h4.1v2.1h-4.1z"/></svg>