<svg xmlns="http://www.w3.org/2000/svg" width="87.2" height="87.2" viewBox="0 0 87.2 87.2"><path fill="#F26822" d="M26.6 3.4C32 1.1 37.7 0 43.6 0s11.6 1.1 17 3.4 10 5.4 13.9 9.3 7 8.5 9.3 13.9c2.3 5.4 3.4 11 3.4 17 0 5.9-1.1 11.5-3.4 16.9-2.3 5.4-5.4 10-9.3 13.9-3.9 3.9-8.5 7-13.9 9.3-5.4 2.3-11 3.4-16.9 3.4S32 86 26.6 83.7c-5.4-2.3-10-5.4-13.9-9.3-3.9-3.9-7-8.5-9.3-13.9C1.1 55.1 0 49.5 0 43.6c0-5.9 1.1-11.6 3.4-17s5.4-10 9.3-13.9 8.5-7 13.9-9.3zm1.3 77.4c5 2.1 10.2 3.2 15.7 3.2s10.7-1.1 15.7-3.2 9.3-5 12.9-8.6c3.6-3.6 6.5-7.9 8.6-12.9 2.1-5 3.2-10.2 3.2-15.7s-1-10.7-3.2-15.7-5-9.3-8.6-12.9-7.9-6.5-12.9-8.6-10.2-3.3-15.7-3.3-10.7 1.1-15.7 3.2-9.3 5-12.9 8.6-6.5 7.9-8.6 12.9c-2.1 5-3.2 10.2-3.2 15.7s1.1 10.7 3.2 15.7 5 9.3 8.6 12.9c3.5 3.7 7.8 6.6 12.9 8.7zm16.2-57.5c3.2 0 5.7 1 7.6 2.9s2.8 4.4 2.8 7.4c0 2.4-.7 4.7-2.2 6.6l-3.6 3.9c-1.1 1.1-1.8 2-2.2 2.7-.3.7-.4 1.8-.4 3.2v2.4h-5v-3.3c0-1.7.2-3 .6-4s1.4-2.2 3-3.7l1.7-1.7c.3-.4.8-.9 1.4-1.6.6-.7 1-1.4 1.2-2.1.2-.7.4-1.4.4-2.2 0-1.6-.5-3-1.6-4.2-1-1.1-2.3-1.7-3.9-1.7-1.7 0-3.1.6-4.1 1.7-1.1 1.1-1.7 2.6-1.9 4.5l-5.3-.6c.4-3.1 1.7-5.7 3.7-7.5 2.2-1.7 4.7-2.7 7.8-2.7zM46 57.6c.7.7 1 1.6 1 2.6s-.3 1.9-1 2.6c-.7.7-1.5 1.1-2.5 1.1s-1.8-.4-2.4-1.1c-.6-.7-1-1.6-1-2.6s.3-1.9 1-2.6c.6-.7 1.5-1 2.4-1s1.8.3 2.5 1z"/></svg>