<svg xmlns="http://www.w3.org/2000/svg" width="88.7" height="88.7" viewBox="0 0 88.7 88.7"><path fill="#F26822" d="M27.1 3.5C32.6 1.2 38.3 0 44.4 0s11.8 1.2 17.3 3.5C67.1 5.8 71.8 9 75.8 13s7.1 8.7 9.4 14.1c2.3 5.5 3.5 11.2 3.5 17.3 0 6-1.2 11.7-3.5 17.2s-5.5 10.2-9.4 14.2c-4 4-8.7 7.1-14.2 9.5-5.5 2.3-11.2 3.5-17.2 3.5s-11.8-1.2-17.2-3.5C21.7 83 17 79.8 13 75.8s-7.1-8.7-9.4-14.2C1.2 56.1 0 50.4 0 44.4s1.2-11.8 3.5-17.3S9 16.9 13 13c3.9-4 8.6-7.2 14.1-9.5zm44.6 71.6c4.3-3.8 7.7-8.4 10.1-13.8 2.5-5.3 3.7-11 3.7-17 0-5.6-1.1-10.9-3.3-16s-5.1-9.5-8.8-13.1-8.1-6.6-13.1-8.8-10.4-3.3-16-3.3-10.9 1.1-16 3.3-9.5 5.1-13.1 8.8-6.6 8.1-8.8 13.1c-2.2 5.1-3.3 10.4-3.3 16 0 6 1.2 11.6 3.7 17 2.5 5.3 5.8 9.9 10.1 13.8 3.6-3.7 7.7-6.5 12.4-8.6 4.7-2.1 9.7-3.1 15-3.1s10.3 1 15 3.1c4.8 2 8.9 4.9 12.4 8.6zM18.5 43.2c.3.3.5.7.5 1.1 0 .4-.2.8-.5 1.1-.3.3-.7.5-1.1.5h-6.3c-.4 0-.8-.2-1.1-.5-.3-.3-.5-.7-.5-1.1 0-.4.2-.8.5-1.1.3-.3.7-.5 1.1-.5h6.3c.4.1.8.2 1.1.5zm3.3-13.7c.4.2.6.6.7 1 .1.4 0 .8-.2 1.2s-.5.6-1 .8c-.4.1-.8.1-1.2-.2l-5.5-3.2c-.4-.2-.6-.6-.8-1-.1-.4-.1-.8.2-1.2.2-.4.5-.6 1-.8.4-.1.8-.1 1.2.2l5.6 3.2zm-1.6 26.9c.4-.2.8-.3 1.2-.2s.7.3 1 .7c.2.4.3.8.2 1.2-.1.4-.3.7-.7 1l-5.5 3.2c-.4.2-.8.3-1.2.2-.4-.1-.8-.4-1-.8-.2-.4-.3-.8-.2-1.2.1-.4.4-.8.8-1l5.4-3.1zm24.2 29.2c9.2 0 17.5-2.8 24.9-8.4-3.2-3.3-7-5.9-11.3-7.8-4.3-1.9-8.8-2.8-13.6-2.8-4.8 0-9.3.9-13.6 2.8-4.3 1.9-8.1 4.5-11.3 7.8 7.3 5.5 15.6 8.4 24.9 8.4zM29.1 14.7l3.2 5.5c.2.4.3.8.2 1.2-.1.4-.4.8-.8 1-.4.2-.8.3-1.2.2-.4-.1-.7-.3-1-.7l-3.2-5.5c-.2-.4-.3-.8-.2-1.2.1-.4.4-.8.8-1 .4-.2.8-.3 1.2-.2.5.1.8.4 1 .7zm30 12.7c.3-.3.7-.5 1.1-.5.4 0 .8.2 1.1.5.3.3.5.6.5 1.1 0 .4-.2.8-.5 1.1L49.8 41.2c.6 1.1.9 2.1.9 3.2 0 1.8-.6 3.3-1.8 4.5-1.2 1.2-2.7 1.8-4.5 1.8s-3.3-.6-4.5-1.8c-1.2-1.2-1.8-2.7-1.8-4.5s.6-3.3 1.8-4.5c1.2-1.2 2.7-1.8 4.5-1.8 1.2 0 2.2.3 3.2.9l11.5-11.6zm-17 19.2c.6.6 1.4.9 2.2.9s1.6-.3 2.2-.9c.6-.6.9-1.4.9-2.2s-.3-1.6-.9-2.2c-.6-.6-1.4-.9-2.2-.9s-1.6.3-2.2.9c-.6.6-.9 1.4-.9 2.2s.3 1.6.9 2.2zm3.4-28.1c-.3.3-.7.5-1.1.5-.4 0-.8-.2-1.1-.5-.3-.3-.5-.7-.5-1.1v-6.3c0-.4.2-.8.5-1.1.3-.3.7-.5 1.1-.5.4 0 .8.2 1.1.5.3.3.5.7.5 1.1v6.3c0 .4-.2.8-.5 1.1zM60.6 14c.4-.1.8 0 1.2.2.4.2.6.5.8 1 .1.4.1.8-.2 1.2l-3.2 5.5c-.2.4-.6.6-1 .7-.4.1-.8.1-1.2-.2-.4-.2-.6-.5-.8-1-.1-.4-.1-.8.2-1.2l3.2-5.5c.2-.3.6-.6 1-.7zm7.9 18.3c-.4.2-.8.3-1.2.2-.4-.1-.8-.4-1-.8-.2-.4-.3-.8-.2-1.2.1-.4.3-.7.7-1l5.5-3.2c.4-.2.8-.3 1.2-.2.4.1.8.4 1 .8.2.4.3.8.2 1.2-.1.4-.4.7-.8 1l-5.4 3.2zM74 59.6c.4.2.6.5.8 1 .1.4.1.8-.2 1.2-.2.4-.5.6-1 .8-.4.1-.8.1-1.2-.2l-5.5-3.2c-.4-.2-.6-.5-.7-1-.1-.4-.1-.8.2-1.2.2-.4.5-.6 1-.7.4-.1.8-.1 1.2.2l5.4 3.1zm3.6-16.8c.4 0 .8.2 1.1.5.3.3.5.7.5 1.1 0 .4-.2.8-.5 1.1-.3.3-.7.5-1.1.5h-6.3c-.4 0-.8-.2-1.1-.5-.3-.3-.5-.7-.5-1.1 0-.4.2-.8.5-1.1.3-.3.7-.5 1.1-.5h6.3z"/></svg>