<svg xmlns="http://www.w3.org/2000/svg" height="61" viewBox="0 0 198.9 61" width="198.9"><path stroke="#F26822" stroke-miterlimit="10" stroke-width="2.59" fill="#fff" d="M56.4 1.3h22.7V13H56.4zm26.4 0h22.7V13H82.8zm26.1 0h22.7V13h-22.7zM56.4 16.4h22.7v11.7H56.4zm26.4 0h22.7v11.7H82.8zm26.1 0h22.7v11.7h-22.7zM56.4 31.7h22.7v11.7H56.4zm26.4 0h22.7v11.7H82.8zm26.1 0h22.7v11.7h-22.7zm-105 .1s22.8 2.5 44.2 5.3c0 0 43.8 3.4 94.6 3.7l3.7-4.5h4.9l2-16h20l.8 3.7h4.5l.8 3.3h4.1l1.6 6.5h2.9l1.2 4.5 8.2.4-.4 7.8-7 2.5s-2 7.4-4.9 10.6H19C7.8 35.3 3.9 31.8 3.9 31.8z"/></svg>