<svg xmlns="http://www.w3.org/2000/svg" width="82.7" height="96.5" viewBox="0 0 82.7 96.5"><path fill="#F26822" d="M56.9 96.5h-31c-.5 0-.9-.2-1.2-.5-.3-.3-.5-.7-.5-1.2s.2-.9.5-1.2c.3-.3.8-.5 1.2-.5h13.8V69.6L3.4 33.4v13c0 .5-.2.9-.5 1.2-.3.3-.7.5-1.2.5s-.9-.2-1.2-.5c-.3-.2-.5-.6-.5-1.1V29.3c0-.5.2-.9.5-1.2.3-.3.8-.5 1.2-.5H19c.5 0 .9.2 1.2.5.3.3.5.8.5 1.2 0 .5-.2.9-.5 1.2-.3.3-.7.5-1.2.5H5.9l33.7 33.8V5.9L28.8 16.7c-.3.3-.7.5-1.2.5s-.9-.2-1.2-.5c-.3-.3-.5-.8-.5-1.2 0-.5.2-.9.5-1.2L40.1.5c.4-.3.8-.5 1.3-.5s.9.2 1.2.5l13.8 13.8c.3.3.5.8.5 1.2 0 .5-.2.9-.5 1.2-.3.3-.7.5-1.2.5s-.9-.2-1.2-.5L43.1 5.9v58.9L76.8 31H63.7c-.5 0-.9-.2-1.2-.5-.3-.3-.5-.7-.5-1.2s.2-.9.5-1.2c.3-.3.7-.5 1.2-.5H81c.5 0 .9.2 1.2.5.3.3.5.8.5 1.2v17.2c0 .5-.2.9-.5 1.2-.3.3-.8.5-1.2.5-.5 0-.9-.2-1.2-.5-.3-.3-.5-.7-.5-1.2v-13L43.1 69.6V93h13.8c.5 0 .9.2 1.2.5.3.3.5.7.5 1.2s-.2.9-.5 1.2c-.4.4-.8.6-1.2.6z"/></svg>