<svg xmlns="http://www.w3.org/2000/svg" width="96.5" height="68.9" viewBox="0 0 96.5 68.9"><path fill="#F26822" d="M84.4 48.2H24.1c-.4 0-.8-.1-1.1-.4-.3-.3-.5-.6-.6-1L14.1 3.4H1.7c-.5 0-.9-.2-1.2-.5-.3-.3-.5-.7-.5-1.2S.2.8.5.5C.8.2 1.2 0 1.7 0h13.8c.4 0 .8.1 1.1.4.3.3.5.6.6 1l1.7 9h75.8c.5 0 .9.2 1.2.5.3.3.5.7.5 1.2 0 .1 0 .3-.1.5L86.1 47c-.3.8-.9 1.2-1.7 1.2zM19.6 13.8l1.6 8.6h7.4l-1.5-8.6h-7.5zm2.3 12l1.3 6.9h7.2l-1.2-6.9h-7.3zm3.6 18.9h6.9l-1.5-8.6h-7.1l1.7 8.6zm1.1 9.5c1.7-1.7 3.7-2.5 6.1-2.5s4.4.8 6.1 2.5 2.5 3.7 2.5 6.1c0 2.4-.8 4.4-2.5 6.1-1.7 1.7-3.7 2.5-6.1 2.5s-4.4-.8-6.1-2.5c-1.7-1.7-2.5-3.7-2.5-6.1 0-2.4.9-4.4 2.5-6.1zm6.1 11.2c1.4 0 2.6-.5 3.7-1.5 1-1 1.5-2.2 1.5-3.6s-.5-2.7-1.5-3.7-2.2-1.5-3.7-1.5c-1.4 0-2.7.5-3.7 1.5s-1.5 2.2-1.5 3.7c0 1.4.5 2.6 1.5 3.6 1.1 1 2.3 1.5 3.7 1.5zm7.1-51.6h-9.1l1.5 8.6h8.6l-1-8.6zm-7.1 12l1.2 6.9h8l-.8-6.9h-8.4zm3.2 18.9h7.2l-.9-8.6h-7.8l1.5 8.6zm17.5-22.3v-8.6H43.2l.9 8.6h9.3zm0 10.3v-6.9h-8.9l.8 6.9h8.1zm0 12v-8.6h-7.8l.9 8.6h6.9zM66 22.4l.9-8.6h-10v8.6H66zm-1.1 10.3l.8-6.9h-8.8v6.9h8zm-1.3 12l.9-8.6h-7.7v8.6h6.8zm4.4 9.5c1.7-1.7 3.7-2.5 6.1-2.5 2.4 0 4.4.8 6.1 2.5 1.7 1.7 2.5 3.7 2.5 6.1 0 2.4-.8 4.4-2.5 6.1-1.7 1.7-3.7 2.5-6.1 2.5-2.4 0-4.4-.8-6.1-2.5-1.7-1.7-2.5-3.7-2.5-6.1 0-2.4.8-4.4 2.5-6.1zm6-9.5l1.8-8.6H68l-.9 8.6H74zm-5.6-12h8.1l1.5-6.9h-8.9l-.7 6.9zm5.7 32.7c1.4 0 2.6-.5 3.6-1.5s1.5-2.2 1.5-3.6-.5-2.7-1.5-3.7-2.2-1.5-3.6-1.5-2.7.5-3.7 1.5-1.5 2.2-1.5 3.7c0 1.4.5 2.6 1.5 3.6s2.2 1.5 3.7 1.5zm-3.6-51.6l-.9 8.6h9.2l1.8-8.6H70.5zm12.6 30.9l2.6-8.6h-6.4l-1.8 8.6h5.6zm3.7-12l2-6.9h-7.3L80 32.7h6.8zm3-10.3l2.6-8.6h-8.3l-1.8 8.6h7.5z"/></svg>