<svg xmlns="http://www.w3.org/2000/svg" width="87.6" height="109.4" viewBox="-245.3 342.1 87.6 109.4" enable-background="new -245.3 342.1 87.6 109.4"><path opacity=".2" fill="#5E5E5E" d="M-162.9 347h-71.4c-2.9 0-5.2 2.3-5.2 5.2v94c0 2.9 2.3 5.2 5.2 5.2h71.4c2.9 0 5.2-2.3 5.2-5.2v-94c0-2.8-2.3-5.2-5.2-5.2z"/><path fill="#003242" d="M-168.6 342.1H-240c-2.9 0-5.2 2.3-5.2 5.2v94c0 2.9 2.3 5.2 5.2 5.2h71.4c2.9 0 5.2-2.3 5.2-5.2v-94c0-2.9-2.4-5.2-5.2-5.2z"/><path fill="#fff" d="M-204.3 443.9c-1.2 0-2.1-.9-2.1-2.1 0-1.2.9-2.1 2.1-2.1 1.2 0 2.1.9 2.1 2.1 0 1.1-1 2.1-2.1 2.1z"/><path fill="#f60" d="M-236 352.2h63.3v84.3H-236z"/><path d="M-216 401.6c.4-.1.6-.2.9-.3 4.5-1.7 9-3.6 13.1-6.2.7-.4 1.3-.9 1.9-1.4.3-.2.5-.5.7-.7.3-.5.2-1-.4-1-.6-.1-1.2-.1-1.8.1-3.5.7-6.9 2-10.2 3.4-1.7.7-3.4 1.6-5.1 2.3-.2.1-.3.1-.6.3-.4-1.2-.9-2.3-1.3-3.5-.2-.9.3-1.5 1-2 2.4-1.9 4.7-3.9 7.1-5.7 3.7-2.8 7.7-5 12.1-6.5 4.5-1.5 9.1-1.8 13.6-.5 1.2.3 2.3.9 3.4 1.5 2.4 1.5 3.1 3.4 2.5 6.2-.6 2.8-2.1 5.1-3.9 7.2-3 3.6-6.9 5.8-11.3 7.4-4.5 1.7-9.1 2.6-13.8 3.2-1.4.2-2.7.3-4.1.4-1.2.1-1.9-.2-2.5-1.3-.5-1-.8-1.9-1.3-2.9zm25.8-16.4c-1.9 0-3.4 1.5-3.4 3.3 0 1.8 1.5 3.2 3.3 3.2 1.9 0 3.4-1.5 3.4-3.4 0-1.8-1.5-3.2-3.3-3.1zm-29.2 6.8c-.2-.1-.3-.2-.5-.3-1.4-1-3-1.2-4.7-.7-1.3.5-2.5 1.1-3.7 1.7-.3.2-.5.2-.7-.1-.6-.7-1.2-1.3-1.8-2 .5-.7 1-1.3 1.6-2 2.4-2.9 5-5.7 8.3-7.8 1.1-.7 2.4-1.4 3.6-1.9 3.4-1.3 6.6-.7 9.4 1.5.5.4.9.8 1.5 1.3-4.7 3-9 6.4-13 10.3zm6.7 14.7c5.6-.2 11-1 16.3-2.4 0 .2.1.3.1.4 0 3.9-1.4 7-4.9 9-2.3 1.3-4.9 1.9-7.6 2.2-3.4.4-6.8.2-10.2-.1-.4 0-.5-.2-.5-.5 0-.7-.1-1.4-.2-2.1-.1-.4.1-.6.5-.7 1.1-.3 2.1-.6 3.1-1.1 2-.9 3.3-2.4 3.4-4.7zm10.1-13.6h.3c.2.1.4.1.4.2s0 .4-.1.5c-.4.4-.8.7-1.2 1-2.7 1.8-5.6 3.1-8.6 4.3-2.1.8-4.2 1.4-6.3 2.1-.5.2-1.1.2-1.6.2-.2 0-.4-.1-.5-.2-.1-.1.1-.4.2-.5.3-.3.7-.7 1.1-.9 4.7-3 9.8-5.1 15.2-6.5.3-.1.7-.1 1.1-.2z" fill="#fff"/></svg>