<svg xmlns="http://www.w3.org/2000/svg" width="86.1" height="103.2" viewBox="0 0 86.1 103.2"><path opacity=".2" fill="#5E5F5F" d="M9.8 19.2v84h76.3V19.4L78.8 16V9.5H17.3v6.1z"/><path fill="#fff" d="M7.5 0h61.7v93.4H7.5z"/><path fill="#68696C" d="M7.5 0v32.4l4.7-27.7z"/><path fill="#E4E6ED" d="M12.2 4.7L0 9.3v79.4h11.8l.4-84z"/><path fill="#68696C" d="M69.2 0v32.4L64.4 4.7z"/><path fill="#E4E6ED" d="M69.2 0l-4.8 4.7 12.3 4.6v79.4H64.9l-.5-84z"/><path fill="#1A97D4" d="M0 9.3h76.6v84.1H0zm0 74.8h76.6v9.4H0z"/><path fill="#fff" d="M0 74.7h76.6V84H0z"/><path fill="#F16E90" d="M0 65.4h76.6v9.3H0z"/><path fill="#F26822" d="M0 65.4h76.6v9.3H0z"/><path fill="#fff" d="M0 56h76.6v9.4H0z"/><path fill="#3B8248" d="M0 46.7h76.6V56H0z"/><path fill="#F26822" d="M0 28h76.6v9.3H0z"/><path fill="#fff" d="M0 18.7h76.6v9.4H0z"/><path fill="#3B8248" d="M0 9.3h76.6v9.3H0z"/><path fill="#616264" d="M62.7 24.3c0 1.8-1.4 3.3-3.3 3.3-1.8 0-3.3-1.5-3.3-3.3 0-1.8 1.5-3.3 3.3-3.3 1.8 0 3.3 1.5 3.3 3.3zm-42.1 0c0 1.8-1.4 3.3-3.3 3.3-1.8 0-3.3-1.5-3.3-3.3 0-1.8 1.5-3.3 3.3-3.3 1.9 0 3.3 1.5 3.3 3.3z"/><path fill="none" stroke="#fff" stroke-width="2.802" stroke-miterlimit="10" d="M59.3 24.3c0 11.6-9.4 21-21 21s-21-9.4-21-21h42z"/></svg>