<svg xmlns="http://www.w3.org/2000/svg" height="99.9" viewBox="0 0 84.3 99.9" width="84.3"><path d="M30.9 99.9h22.6c.8 0 1.4-.6 1.4-1.4s-.6-1.4-1.4-1.4H30.9c-.8 0-1.4.6-1.4 1.4-.1.7.6 1.4 1.4 1.4z" fill="#59595A"/><path d="M42.2 7.3c-.4 0-.7-.3-.7-.7V.7c0-.4.3-.7.7-.7s.8.3.8.7v5.9c0 .4-.4.7-.8.7zm9.2 1.3h-.2c-.4-.1-.6-.5-.5-.9L52.3 2c.1-.4.5-.6.9-.5s.6.5.5.9L52.1 8c-.1.3-.3.6-.7.6zm8.6 3.5c-.1 0-.2 0-.4-.1-.3-.2-.5-.6-.3-1l2.9-5.1c.2-.3.6-.5 1-.3s.5.6.3 1l-2.9 5.1c-.1.3-.3.4-.6.4zm7.4 5.7c-.2 0-.4-.1-.5-.2-.3-.3-.3-.7 0-1l4.2-4.2c.3-.3.7-.3 1 0s.3.7 0 1l-4.2 4.2c-.2.1-.3.2-.5.2zm5.6 7.4c-.3 0-.5-.1-.6-.4-.2-.3-.1-.8.3-1l5.1-2.9c.3-.2.8-.1 1 .3.2.3.1.8-.3 1l-5.1 2.9c-.1 0-.3.1-.4.1zm3.5 8.5c-.3 0-.6-.2-.7-.5-.1-.4.1-.8.5-.9l5.7-1.5c.4-.1.8.1.9.5s-.1.8-.5.9l-5.7 1.5h-.2zm7.1 9.3h-5.9c-.4 0-.7-.3-.7-.7s.3-.7.7-.7h5.9c.4 0 .7.3.7.7 0 .3-.3.7-.7.7zm-1.4 10.7H82l-5.7-1.5c-.4-.1-.6-.5-.5-.9s.5-.6.9-.5l5.7 1.5c.4.1.6.5.5.9-.1.3-.4.5-.7.5zm-4.2 10c-.1 0-.2 0-.4-.1l-5.1-2.9c-.3-.2-.5-.6-.3-1 .2-.3.6-.5 1-.3l5.1 2.9c.3.2.5.6.3 1-.1.2-.3.4-.6.4zm-6.6 8.5c-.2 0-.4-.1-.5-.2l-4.2-4.2c-.3-.3-.3-.7 0-1s.7-.3 1 0L72 71c.3.3.3.7 0 1-.2.2-.4.2-.6.2zm-58.6 0c-.2 0-.4-.1-.5-.2-.3-.3-.3-.7 0-1l4.2-4.2c.3-.3.7-.3 1 0s.3.7 0 1L13.3 72c-.1.1-.3.2-.5.2zm-6.6-8.6c-.3 0-.5-.1-.6-.4-.2-.3-.1-.8.3-1l5.1-2.9c.3-.2.8-.1 1 .3.2.3.1.8-.3 1l-5.1 2.9c-.1 0-.2.1-.4.1zm-4.1-10c-.3 0-.6-.2-.7-.5-.1-.4.1-.8.5-.9l5.7-1.5c.4-.1.8.1.9.5.1.3-.1.7-.5.8l-5.7 1.5c-.1.1-.1.1-.2.1zm4.5-10.8H.7c-.4 0-.7-.3-.7-.7s.3-.7.7-.7h5.9c.4 0 .7.3.7.7s-.3.7-.7.7zm1.2-9.2h-.2L2 32.1c-.4-.1-.6-.5-.5-.9s.5-.6.9-.5L8 32.2c.4.1.6.5.5.9-.1.3-.3.5-.7.5zm3.6-8.5c-.1 0-.2 0-.4-.1l-5.1-3c-.3-.2-.5-.6-.3-1 .2-.3.6-.5 1-.3l5.1 2.9c.3.2.5.6.3 1-.1.3-.3.5-.6.5zm5.7-7.4c-.2 0-.4-.1-.5-.2l-4.2-4.2c-.3-.3-.3-.7 0-1s.7-.3 1 0l4.2 4.2c.3.3.3.7 0 1-.2.1-.3.2-.5.2zm7.3-5.6c-.3 0-.5-.1-.6-.4l-2.9-5.1c-.2-.3-.1-.8.3-1 .3-.2.8-.1 1 .3l2.9 5.1c.2.3.1.8-.3 1-.1 0-.2.1-.4.1zM33 8.5c-.3 0-.6-.2-.7-.5l-1.5-5.7c-.1-.4.1-.8.5-.9s.8.1.9.5l1.5 5.7c.1.4-.1.8-.5.9H33z" fill="#fff"/><path d="M14 41.9c0-15.6 12.6-28.2 28.2-28.2s28.2 12.6 28.2 28.2c0 .9-.7 13.9-11.3 27.6-3.1 4.1-2.6 12.4-2.6 12.4H27.8s.6-8.3-2.5-12.4C14.7 55.8 14 42.8 14 41.9z" fill="#F99F1C"/><path d="M42.2 81.9H27.8s.6-8.3-2.5-12.4C14.7 55.8 14 42.8 14 41.9c0-15.6 12.6-28.2 28.2-28.2" fill="#FFCA0A"/><path d="M64.4 41.9h-2.5c0-10.9-8.8-19.7-19.7-19.7v-2.5c12.2 0 22.2 9.9 22.2 22.2z" fill="#FFCA0A"/><path fill="#59595A" d="M48.3 84.1l-2.4-.4 4.8-29.1 2.4.4zm-12.3 0L31.2 55l2.4-.4 4.9 29.1zm15.8-25.4c-1 0-1.5-1-1.8-1.7-.1-.3-.4-.9-.6-.9s-.4.6-.6.9c-.3.7-.8 1.7-1.8 1.7s-1.4-1-1.8-1.7c-.1-.3-.4-.9-.6-.9s-.4.6-.6.9c-.3.7-.8 1.7-1.8 1.7s-1.5-1-1.8-1.7c-.1-.3-.4-.9-.6-.9s-.4.6-.6.9c-.3.7-.8 1.7-1.8 1.7s-1.5-1-1.8-1.7c-.1-.3-.4-.9-.6-.9s0 .6-.2.9c-.3.7-.8 1.7-1.8 1.7v-1.3c.2 0 .4-.6.6-.9.3-.7.8-1.7 1.8-1.7s1.5 1 1.8 1.7c.1.3.4.9.6.9s.4-.6.6-.9c.3-.7.8-1.7 1.8-1.7s1.5 1 1.8 1.7c.1.3.4.9.6.9s.4-.6.6-.9c.3-.7.8-1.7 1.8-1.7s1.4 1 1.8 1.7c.1.3.4.9.6.9s.4-.6.6-.9c.3-.7.8-1.7 1.8-1.7s1.5 1 1.8 1.7c.1.3.4.9.6.9v1.3h-.4z"/><path d="M56.5 82.1v14.7c0 1-.8 1.8-1.8 1.8h-25c-1 0-1.8-.8-1.8-1.8V82.1h28.6z" fill="#353535"/><path d="M57.1 84.9H27.2c-.8 0-1.4-.6-1.4-1.4s.6-1.4 1.4-1.4h29.9c.8 0 1.4.6 1.4 1.4s-.6 1.4-1.4 1.4zm0 4.9H27.2c-.8 0-1.4-.6-1.4-1.4s.6-1.4 1.4-1.4h29.9c.8 0 1.4.6 1.4 1.4 0 .7-.6 1.4-1.4 1.4zm0 4.8H27.2c-.8 0-1.4-.6-1.4-1.4s.6-1.4 1.4-1.4h29.9c.8 0 1.4.6 1.4 1.4 0 .7-.6 1.4-1.4 1.4z" fill="#59595A"/></svg>