<svg xmlns="http://www.w3.org/2000/svg" width="101.7" height="100.5" viewBox="0 0 101.7 100.5"><circle opacity=".2" fill="#5E5F5F" cx="54.7" cy="53.6" r="46.9"/><circle fill="#FDBB4E" cx="47.2" cy="47.2" r="47.2"/><path fill="#5E5F5F" d="M28.3 50.1l-4.8-1.9 11.8-29.1 4.8 2.1zm38.3 0l4.7-1.9-11.8-29.1-4.8 2.1z"/><path fill="none" stroke="#5D4C52" stroke-width=".822" stroke-linejoin="round" stroke-miterlimit="10" d="M47.9 13.9L36 19.1h22.8z"/><path fill="#5D4C52" d="M47.9 14.3c-.2 0-.4-.2-.4-.4v-1.2c-1.2-.2-2.1-1.2-2.1-2.5 0-1.4 1.1-2.5 2.5-2.5s2.5 1.1 2.5 2.5c0 .2-.2.4-.4.4s-.4-.2-.4-.4c0-.9-.8-1.7-1.7-1.7s-1.7.8-1.7 1.7.8 1.7 1.7 1.7c.2 0 .4.2.4.4v1.6c0 .2-.2.4-.4.4z"/><path fill="#5E5F5F" d="M59.1 24.7c.2-4.2 3-6.6-5.3-8.2h-.3s.5 8.2-6.1 8.2-6.1-8.2-6.1-8.2H41c-8.3 1.6-5.5 4-5.3 8.2-2.6 5.7 2 10.2 1.2 16.3-1.9 14.9-2.9 19-.8 41.6.3 3.2 5.8 4.8 11.2 4.8 5.5 0 11-1.6 11.2-4.8 2.3-22.6 1.3-26.7-.6-41.6-.8-6.2 3.8-10.6 1.2-16.3z"/><path opacity=".55" fill="#EF4527" d="M47.2 0v94.4c26.1 0 47.2-21.1 47.2-47.2S73.3 0 47.2 0z"/></svg>