<svg xmlns="http://www.w3.org/2000/svg" width="139.8" height="86" viewBox="0 0 139.8 86"><path opacity=".2" fill="#5E5F5F" d="M34.2 16.2H9.5c-3 0-5.4 2.4-5.4 5.4v59c0 3 2.4 5.4 5.4 5.4h24.7c3 0 5.4-2.4 5.4-5.4v-59c0-3-2.4-5.4-5.4-5.4zm100.2 0h-24.7c-3 0-5.4 2.4-5.4 5.4v59c0 3 2.4 5.4 5.4 5.4h24.7c3 0 5.4-2.4 5.4-5.4v-59c0-3-2.5-5.4-5.4-5.4z"/><path fill="#013242" d="M30.1 10.9H5.4c-3 0-5.4 2.4-5.4 5.4v59c0 3 2.4 5.4 5.4 5.4h24.7c3 0 5.4-2.4 5.4-5.4v-59c0-2.9-2.4-5.4-5.4-5.4z"/><path fill="#fff" d="M13.1 15.1h9.3c.3 0 .5.2.5.5s-.2.5-.5.5h-9.3c-.3 0-.5-.2-.5-.5s.2-.5.5-.5zm4.6 61.7c-1.7 0-3.1-1.4-3.1-3.1 0-1.7 1.4-3.1 3.1-3.1 1.7 0 3.1 1.4 3.1 3.1.1 1.7-1.3 3.1-3.1 3.1z"/><path fill="#F26328" d="M2.4 21.6h30.8v45.6H2.4z"/><path fill="#DC4226" d="M33.1 67.2H2.4V21.6z"/><path fill="#fff" d="M6.6 33.5H29v6H6.6z"/><path d="M9.5 36.5c0 .4-.3.8-.8.8-.4 0-.7-.3-.7-.8 0-.4.3-.7.7-.7.4 0 .8.3.8.7zm2.2 0c0 .4-.3.8-.7.8-.4 0-.7-.3-.7-.8 0-.4.3-.7.7-.7.4 0 .7.3.7.7zm2.3 0c0 .4-.3.8-.8.8-.4 0-.7-.3-.7-.8 0-.4.3-.7.7-.7.4 0 .8.3.8.7zm2.2 0c0 .4-.3.8-.8.8-.4 0-.8-.3-.8-.8 0-.4.3-.7.8-.7s.8.3.8.7zm2.3 0c0 .4-.3.8-.8.8-.4 0-.7-.3-.7-.8 0-.4.3-.7.7-.7.4 0 .8.3.8.7zm2.2 0c0 .4-.3.8-.8.8-.4 0-.7-.3-.7-.8 0-.4.3-.7.7-.7.5 0 .8.3.8.7zm2.3 0c0 .4-.3.8-.8.8-.4 0-.8-.3-.8-.8 0-.4.3-.7.8-.7.4 0 .8.3.8.7z" fill="#175079"/><path fill="#fff" d="M6.6 41.4H29v6H6.6z"/><path d="M9.5 44.4c0 .4-.3.7-.8.7-.4 0-.7-.3-.7-.7 0-.4.3-.8.7-.8.4.1.8.4.8.8zm2.2 0c0 .4-.3.7-.7.7-.4 0-.7-.3-.7-.7 0-.4.3-.8.7-.8.4.1.7.4.7.8zm2.3 0c0 .4-.3.7-.8.7-.4 0-.7-.3-.7-.7 0-.4.3-.8.7-.8.4.1.8.4.8.8zm2.2 0c0 .4-.3.7-.8.7-.4 0-.8-.3-.8-.7 0-.4.3-.8.8-.8.5.1.8.4.8.8zm2.3 0c0 .4-.3.7-.8.7-.4 0-.7-.3-.7-.7 0-.4.3-.8.7-.8.4.1.8.4.8.8zm2.2 0c0 .4-.3.7-.8.7-.4 0-.7-.3-.7-.7 0-.4.3-.8.7-.8.5.1.8.4.8.8zM6.6 49.3H29v6H6.6z" fill="#175079"/><path fill="#C1E1DE" d="M12.4 52.1h10.7v.5H12.4z"/><path fill="#013242" d="M129 10.9h-24.7c-3 0-5.4 2.4-5.4 5.4v59c0 3 2.4 5.4 5.4 5.4H129c3 0 5.4-2.4 5.4-5.4v-59c0-2.9-2.4-5.4-5.4-5.4z"/><path fill="#fff" d="M112 15.1h9.3c.3 0 .5.2.5.5s-.2.5-.5.5H112c-.3 0-.5-.2-.5-.5s.3-.5.5-.5zm4.7 61.7c-1.7 0-3.1-1.4-3.1-3.1 0-1.7 1.4-3.1 3.1-3.1 1.7 0 3.1 1.4 3.1 3.1 0 1.7-1.4 3.1-3.1 3.1z"/><path fill="#F26328" d="M101.3 21.6h30.8v45.6h-30.8z"/><path fill="#DC4226" d="M132 67.2h-30.7V21.6z"/><path fill="#fff" d="M105.5 33.5h22.4v6h-22.4z"/><path d="M108.4 36.5c0 .4-.3.8-.8.8-.4 0-.7-.3-.7-.8 0-.4.3-.7.7-.7.4 0 .8.3.8.7zm2.2 0c0 .4-.3.8-.7.8-.4 0-.7-.3-.7-.8 0-.4.3-.7.7-.7.4 0 .7.3.7.7zm2.3 0c0 .4-.3.8-.8.8-.4 0-.7-.3-.7-.8 0-.4.3-.7.7-.7.4 0 .8.3.8.7zm2.2 0c0 .4-.3.8-.8.8-.4 0-.8-.3-.8-.8 0-.4.3-.7.8-.7s.8.3.8.7zm2.3 0c0 .4-.3.8-.8.8-.4 0-.7-.3-.7-.8 0-.4.3-.7.7-.7.4 0 .8.3.8.7zm2.2 0c0 .4-.3.8-.8.8-.4 0-.7-.3-.7-.8 0-.4.3-.7.7-.7.5 0 .8.3.8.7zm2.3 0c0 .4-.3.8-.8.8-.4 0-.8-.3-.8-.8 0-.4.3-.7.8-.7.4 0 .8.3.8.7z" fill="#175079"/><path fill="#fff" d="M105.5 41.4h22.4v6h-22.4z"/><path d="M108.4 44.4c0 .4-.3.7-.8.7-.4 0-.7-.3-.7-.7 0-.4.3-.8.7-.8.4.1.8.4.8.8zm2.2 0c0 .4-.3.7-.7.7-.4 0-.7-.3-.7-.7 0-.4.3-.8.7-.8.4.1.7.4.7.8zm2.3 0c0 .4-.3.7-.8.7-.4 0-.7-.3-.7-.7 0-.4.3-.8.7-.8.4.1.8.4.8.8zm2.2 0c0 .4-.3.7-.8.7-.4 0-.8-.3-.8-.7 0-.4.3-.8.8-.8.5.1.8.4.8.8zm2.3 0c0 .4-.3.7-.8.7-.4 0-.7-.3-.7-.7 0-.4.3-.8.7-.8.4.1.8.4.8.8zm2.2 0c0 .4-.3.7-.8.7-.4 0-.7-.3-.7-.7 0-.4.3-.8.7-.8.5.1.8.4.8.8zm-14.1 4.9h22.4v6h-22.4z" fill="#175079"/><path fill="#C1E1DE" d="M111.3 52.1H122v.5h-10.7z"/><path fill="#5E5F5F" d="M58.4 31.4c-1 0-2-.1-3-.2-1.8 1.8-5.2 4.6-9.4 4.6-.3 0-.6-.2-.7-.4-.1-.3 0-.6.2-.8 0 0 2.1-2.2 2.6-5.8-4.4-2.6-7.2-6.8-7.2-11.5C41 9.4 48.8 3 58.4 3s17.5 6.4 17.5 14.2c0 7.8-7.8 14.2-17.5 14.2zm.2 15.4c0-7.8 7.8-14.2 17.5-14.2S93.6 39 93.6 46.8c0 4.7-2.8 8.9-7.2 11.5.5 3.6 2.6 5.8 2.6 5.8.2.2.2.5.2.8-.1.3-.4.4-.7.4-4.2 0-7.6-2.8-9.4-4.6-.9.1-1.9.2-3 .2-9.7.1-17.5-6.2-17.5-14.1z" opacity=".2"/><path fill="#fff" d="M55.4 28.4c-1 0-2-.1-3-.2-1.8 1.8-5.2 4.6-9.4 4.6-.3 0-.6-.2-.7-.4-.1-.3 0-.6.2-.8 0 0 2.1-2.2 2.6-5.8-4.4-2.6-7.2-6.8-7.2-11.5C38 6.4 45.8 0 55.4 0s17.5 6.4 17.5 14.2c0 7.8-7.8 14.2-17.5 14.2zm.2 15.4c0-7.8 7.8-14.2 17.5-14.2S90.6 36 90.6 43.8c0 4.7-2.8 8.9-7.2 11.5.5 3.6 2.6 5.8 2.6 5.8.2.2.2.5.2.8-.1.3-.4.4-.7.4-4.2 0-7.6-2.8-9.4-4.6-.9.1-1.9.2-3 .2-9.7.1-17.5-6.2-17.5-14.1z"/></svg>