<svg xmlns="http://www.w3.org/2000/svg" width="102" height="101" viewBox="0 0 102 101"><circle opacity=".2" fill="#5E5F5F" cx="55.1" cy="54" r="46.9"/><path fill="#F26822" d="M93.8 46.9c0 25.9-21 46.9-46.9 46.9S0 72.8 0 46.9 21 0 46.9 0s46.9 21 46.9 46.9z"/><path d="M67.8 77.3l.3-17.1s11-16.2 7.5-28.4c0 0-.7-6.3-10.3-12.5 0 0-13.5-7.7-26.1-.3 0 0-9.3 3.7-12.5 12.8 0 0-3.3 5.1-3.1 7.7l-.3 4.2s-.2.3-5.4 6.7c0 0-2 3.2 2.7 3.8 0 0 1.1-.1 1.2.8 0 0-1.3 1.5-.7 3.3v1.8s-.4.8.3 1.5c0 0-1 2.4 1.1 3.2 0 0 1.3.5.5 3.4 0 0-.9 3 5.1 5.1 0 0 8 0 9.1-.3 0 0-.4 4.9 2.9 4.8l27.7-.5zM24.5 35.8s2.4-5.7 4.8-9c2.5-3.3-.1 4.8-.1 4.8l-2.1 5.2-2.1 1.9s-1.4.3-.5-2.9z" fill="#fff"/><path fill="#DC4226" d="M33.3 33.4c0 7.9 8.7 14.3 19.3 14.3 10.7 0 19.3-6.4 19.3-14.3s-8.7-14.3-19.3-14.3c-10.6 0-19.3 6.4-19.3 14.3z"/><path fill="#F5F5F5" d="M51.7 24.7c2.7 1.6 3.7 5.1 2.1 7.8s-5.1 3.7-7.8 2.1-3.7-5.1-2.1-7.8c1.5-2.7 5-3.7 7.8-2.1z"/><path fill="#19B0BF" d="M50 27.5c1.2.7 1.6 2.2.9 3.3-.7 1.2-2.2 1.6-3.3.9-1.2-.7-1.6-2.2-.9-3.3.7-1.1 2.1-1.5 3.3-.9z"/><path fill="#F5F5F5" d="M44.9 30.3l-3.2-.3c-.2 0-.3-.2-.3-.4l.1-1.6c0-.2.2-.4.4-.3l3.3.3-.3 2.3zm1.1 2.3l-2.8 1.6c-.2.1-.4 0-.5-.1l-.8-1.4c-.1-.2 0-.4.1-.5l2.8-1.6 1.2 2zm2.2 1.1l-1.4 3c-.1.2-.3.3-.5.2l-1.5-.7c-.2-.1-.3-.3-.2-.5l1.4-2.9 2.2.9zm2.4-.4l.6 3.2c0 .2-.1.4-.3.4l-1.6.3c-.2 0-.4-.1-.4-.3l-.6-3.2 2.3-.4zm1.8-1.7l2.3 2.3c.1.1.1.4 0 .5l-1.1 1.2c-.1.1-.4.1-.5 0l-2.3-2.3 1.6-1.7zm.4-2.4l3.2.6c.2 0 .3.2.3.4l-.3 1.6c0 .2-.2.3-.4.3l-3.2-.6.4-2.3zm-1-2.3l3-1.4c.2-.1.4 0 .5.2l.7 1.5c.1.2 0 .4-.2.5l-2.9 1.4-1.1-2.2zm-2.1-1.2l1.6-2.8c.1-.2.3-.2.5-.1l1.4.8c.2.1.2.3.1.5l-1.6 2.8-2-1.2zm-2.8.3l-.3-3.3c0-.2.1-.4.3-.4l1.6-.2c.2 0 .4.1.4.3l.3 3.3-2.3.3zm-1.7 1.9l-2.3-2.3c-.1-.1-.1-.4 0-.5l1.2-1.1c.2-.1.4-.1.5 0l2.3 2.3-1.7 1.6z"/><path fill="#fff" d="M48.9 29.6l-.2.1-.5-2.4h.1zm-.1.1l-2.1-1.2.1-.2 2 1.3zm0 0l-2.3.6-.1-.2 2.4-.5zm-.04-.043l.084.055-1.322 2.003-.084-.055zm-.038-.01l.195-.045.543 2.338-.194.045zM50.8 31l-2-1.3v-.1l2.1 1.3zm-1.99-1.433l2.337-.548.023.095-2.337.547zm.09.133l-.2-.1 1.3-2 .1.1z" opacity=".6"/><path fill="#fff" d="M63.3 29.9c2 1.1 2.6 3.7 1.5 5.6-1.2 2-3.7 2.7-5.7 1.5-2-1.1-2.7-3.7-1.5-5.6 1.2-1.9 3.7-2.6 5.7-1.5z"/><path fill="#DC4226" d="M62.1 32c.8.5 1.1 1.6.6 2.4-.5.8-1.6 1.1-2.4.6-.8-.5-1.1-1.6-.6-2.4.5-.8 1.6-1.1 2.4-.6z"/><path fill="#fff" d="M58.4 34l-2.3-.2c-.1 0-.3-.1-.2-.3l.1-1.2c0-.1.1-.3.3-.2l2.4.2-.3 1.7zm.8 1.6l-2.1 1.2c-.1.1-.3 0-.3-.1l-.6-1c-.1-.1 0-.3.1-.4l2.1-1.2.8 1.5zm1.6.8l-1 2.1c-.1.1-.2.2-.3.1l-1.1-.5c-.1-.1-.2-.2-.1-.4l1-2.1 1.5.8zm1.8-.3l.4 2.3c0 .1-.1.3-.2.3l-1.2.3c-.1 0-.3-.1-.3-.2l-.4-2.3 1.7-.4zm1.3-1.2l1.7 1.7c.1.1.1.3 0 .4l-.8.8c-.1.1-.3.1-.4 0l-1.7-1.7 1.2-1.2zm.3-1.7l2.3.4c.1 0 .2.2.2.3l-.2 1.1c0 .1-.2.2-.3.2l-2.3-.4.3-1.6zm-.7-1.7l2.1-1c.1-.1.3 0 .3.1l.5 1.1c.1.1 0 .3-.1.3l-2.1 1-.7-1.5zm-1.6-.9l1.2-2.1c.1-.1.2-.2.4-.1l1 .6c.1.1.2.2.1.4l-1.2 2-1.5-.8zm-2 .2l-.2-2.4c0-.1.1-.3.2-.3l1.2-.1c.2 0 .3.1.3.2l.2 2.4-1.7.2zm-1.3 1.4L57 30.5c-.1-.1-.1-.3 0-.4l.8-.8c.1-.1.3-.1.4 0l1.6 1.7-1.2 1.2zm-6.9-7.5c2.7 1.6 3.7 5.1 2.1 7.8s-5.1 3.7-7.8 2.1-3.7-5.1-2.1-7.8c1.5-2.7 5-3.7 7.8-2.1z"/><path fill="#DC4226" d="M50 27.5c1.2.7 1.6 2.2.9 3.3-.7 1.2-2.2 1.6-3.3.9-1.2-.7-1.6-2.2-.9-3.3.7-1.1 2.1-1.5 3.3-.9z"/><path fill="#fff" d="M44.9 30.3l-3.2-.3c-.2 0-.3-.2-.3-.4l.1-1.6c0-.2.2-.4.4-.3l3.3.3-.3 2.3zm1.1 2.3l-2.8 1.6c-.2.1-.4 0-.5-.1l-.8-1.4c-.1-.2 0-.4.1-.5l2.8-1.6 1.2 2zm2.2 1.1l-1.4 3c-.1.2-.3.3-.5.2l-1.5-.7c-.2-.1-.3-.3-.2-.5l1.4-2.9 2.2.9zm2.4-.4l.6 3.2c0 .2-.1.4-.3.4l-1.6.3c-.2 0-.4-.1-.4-.3l-.6-3.2 2.3-.4zm1.8-1.7l2.3 2.3c.1.1.1.4 0 .5l-1.1 1.2c-.1.1-.4.1-.5 0l-2.3-2.3 1.6-1.7zm.4-2.4l3.2.6c.2 0 .3.2.3.4l-.3 1.6c0 .2-.2.3-.4.3l-3.2-.6.4-2.3zm-1-2.3l3-1.4c.2-.1.4 0 .5.2l.7 1.5c.1.2 0 .4-.2.5l-2.9 1.4-1.1-2.2zm-2.1-1.2l1.6-2.8c.1-.2.3-.2.5-.1l1.4.8c.2.1.2.3.1.5l-1.6 2.8-2-1.2zm-2.8.3l-.3-3.3c0-.2.1-.4.3-.4l1.6-.2c.2 0 .4.1.4.3l.3 3.3-2.3.3zm-1.7 1.9l-2.3-2.3c-.1-.1-.1-.4 0-.5l1.2-1.1c.2-.1.4-.1.5 0l2.3 2.3-1.7 1.6zm10.3 9.5c1.7 1 2.2 3.1 1.3 4.7-1 1.7-3.1 2.2-4.7 1.3-1.7-1-2.2-3.1-1.3-4.7.9-1.6 3.1-2.2 4.7-1.3z"/><path fill="#DC4226" d="M54.5 39.2c.7.4 1 1.3.5 2-.4.7-1.3 1-2 .5-.7-.4-.9-1.3-.5-2s1.3-1 2-.5z"/><path fill="#fff" d="M51.5 40.8l-2-.2c-.1 0-.2-.1-.2-.2l.1-1c0-.1.1-.2.2-.2l2 .2-.1 1.4zm.6 1.4l-1.7 1c-.1.1-.2 0-.3-.1l-.5-.8c-.1-.1 0-.2.1-.3l1.7-1 .7 1.2zm1.4.7l-.8 1.8c0 .1-.2.2-.3.1l-.9-.4c-.1-.1-.2-.2-.1-.3l.8-1.8 1.3.6zm1.4-.2l.3 1.9c0 .1-.1.2-.2.2l-1 .2c-.1 0-.2-.1-.3-.2l-.3-1.9 1.5-.2zm1.1-1.1l1.4 1.4c.1.1.1.2 0 .3l-.7.7c-.1.1-.2.1-.3 0L55 42.6l1-1zm.2-1.5l2 .4c.1 0 .2.1.2.3l-.2 1c0 .1-.1.2-.3.2l-1.9-.4.2-1.5zm-.6-1.3l1.8-.8c.1 0 .2 0 .3.1l.4.9c0 .1 0 .2-.1.3l-1.8.8-.6-1.3zm-1.2-.8l1-1.7c.1-.1.2-.1.3-.1l.9.5c.1.1.1.2.1.3l-1 1.7-1.3-.7zm-1.7.2l-.2-2c0-.1.1-.2.2-.2l1-.1c.1 0 .2.1.2.2l.2 2-1.4.1zm-1.1 1.2L50.2 38c-.1-.1-.1-.2 0-.3l.7-.7c.1-.1.2-.1.3 0l1.4 1.4-1 1z"/><path fill="#FBBD13" d="M69.9 81.6l-31.1 1-.2-4.7 31.1-1.1z"/></svg>