<svg xmlns="http://www.w3.org/2000/svg" viewBox="0 0 33 33" enable-background="new 0 0 33 33"><ellipse fill="#fff" cx="16.5" cy="16.9" rx="16" ry="15.2"/><path fill="#253975" d="M33 16.5c0 9.1-7.4 16.5-16.5 16.5s-16.5-7.4-16.5-16.5 7.4-16.5 16.5-16.5 16.5 7.4 16.5 16.5zm-20.6-7.9c0-1.4-1.1-2.4-2.8-2.4-1.6 0-2.8 1-2.8 2.4 0 1.3 1.1 2.4 2.7 2.4 1.8 0 2.9-1.1 2.9-2.4zm-.7 4.5h-4.1v11.7h4.1v-11.7zm15.1 5.5c0-3.8-1.9-6.2-4.8-6.2-1.7 0-2.9 1-3.4 2.5l-.2-1.8h-4.1c0 .5.1 2.8.1 2.8v8.9h4.1v-6.2c0-1.7.8-2.8 2-2.8 1.3 0 2.1.6 2.1 2.8v6.2h4.1v-6.2z"/></svg>