<svg xmlns="http://www.w3.org/2000/svg" viewBox="0 0 33 33" enable-background="new 0 0 33 33"><ellipse fill="#fff" cx="16.5" cy="16.1" rx="16" ry="13.3"/><path fill="#ED6523" d="M33 16.5c0 9.1-7.4 16.5-16.5 16.5s-16.5-7.4-16.5-16.5 7.4-16.5 16.5-16.5 16.5 7.4 16.5 16.5zm-6.2 8.3c0-10.2-8.3-18.6-18.6-18.6v3.4c8.4 0 15.1 6.8 15.1 15.1l3.5.1zm-6.2 0c0-6.8-5.5-12.4-12.4-12.4v3.4c4.9 0 8.9 4 8.9 8.9l3.5.1zm-6.8-2.8c0-1.5-1.2-2.8-2.8-2.8-1.5 0-2.8 1.2-2.8 2.8s1.2 2.8 2.8 2.8c1.5 0 2.8-1.3 2.8-2.8z"/></svg>