<?xml version="1.0" encoding="utf-8"?>
<!-- Generator: Adobe Illustrator 18.1.1, SVG Export Plug-In . SVG Version: 6.00 Build 0)  -->
<!DOCTYPE svg PUBLIC "-//W3C//DTD SVG 1.1//EN" "http://www.w3.org/Graphics/SVG/1.1/DTD/svg11.dtd">
<svg version="1.1" id="Layer_1" xmlns="http://www.w3.org/2000/svg" xmlns:xlink="http://www.w3.org/1999/xlink" x="0px" y="0px"
	 width="16.6px" height="16.6px" viewBox="0 0 16.6 16.6" enable-background="new 0 0 16.6 16.6" xml:space="preserve">
<path fill="#5E5F5F" d="M15.8,16.6c-0.2,0-0.4-0.1-0.5-0.2l-4.1-4.1c-1.2,1-2.7,1.5-4.3,1.5C3.1,13.8,0,10.7,0,6.9S3.1,0,6.9,0
	s6.9,3.1,6.9,6.9c0,1.6-0.5,3.1-1.5,4.3l4.1,4.1c0.3,0.3,0.3,0.8,0,1.1C16.2,16.5,16,16.6,15.8,16.6z M6.9,1.6
	C4,1.6,1.6,3.9,1.6,6.9s2.4,5.3,5.3,5.3s5.3-2.4,5.3-5.3S9.8,1.6,6.9,1.6z"/>
</svg>
