<svg xmlns="http://www.w3.org/2000/svg" viewBox="0 0 33 33" enable-background="new 0 0 33 33"><ellipse fill="#fff" cx="16.7" cy="16.8" rx="15.4" ry="15.4"/><path fill="#4787C7" d="M33 16.5c0 9.1-7.4 16.5-16.5 16.5s-16.4-7.4-16.4-16.5 7.3-16.5 16.4-16.5 16.5 7.4 16.5 16.5zm-4.1-6c-.8.3-1.8.6-2.7.7 1-.6 1.7-1.5 2-2.6-.9.5-1.9.9-2.9 1.1-.8-.9-2.1-1.5-3.4-1.5-2.6 0-4.6 2.1-4.6 4.7 0 .3 0 .7.1 1.1-4-.2-7.4-2-9.7-4.9-.4.7-.7 1.5-.7 2.4 0 1.6.8 3 2.1 3.9-.8 0-1.5-.2-2.1-.6 0 2.3 1.6 4.2 3.7 4.6-.4.1-.8.2-1.2.2-.3 0-.6 0-.9-.1.6 1.9 2.3 3.1 4.3 3.2-1.6 1.3-3.6 2.1-5.8 2.1-.4 0-.8 0-1.1-.1 2.1 1.3 4.5 2.1 7.2 2.1 8.6 0 13.3-7.1 13.3-13.3v-.6c1-.7 1.7-1.5 2.4-2.4z"/></svg>